<svg width="19" height="16" viewBox="0 0 19 16" fill="none" xmlns="http://www.w3.org/2000/svg">
<path d="M12.7782 7.58403L8.83567 4.94117C8.73668 4.87477 8.62163 4.83663 8.50278 4.83084C8.38393 4.82505 8.26575 4.85182 8.16085 4.90829C8.05594 4.96477 7.96826 5.04882 7.90716 5.15148C7.84605 5.25415 7.81382 5.37157 7.81389 5.49121V10.7769C7.81382 10.8966 7.84605 11.014 7.90716 11.1167C7.96826 11.2193 8.05594 11.3034 8.16085 11.3598C8.26575 11.4163 8.38393 11.4431 8.50278 11.4373C8.62163 11.4315 8.73668 11.3934 8.83567 11.327L12.7782 8.68412C12.8683 8.6238 12.9422 8.54203 12.9934 8.44607C13.0445 8.35011 13.0712 8.24293 13.0712 8.13407C13.0712 8.02521 13.0445 7.91803 12.9934 7.82207C12.9422 7.72611 12.8683 7.64434 12.7782 7.58403ZM9.12807 9.54222V6.73005L11.2291 8.13407L9.12807 9.54222ZM18.5187 3.30425C18.4413 2.99978 18.293 2.71818 18.0861 2.48268C17.8791 2.24718 17.6195 2.06452 17.3285 1.94979C14.5129 0.856303 10.0316 0.866214 9.78516 0.866214C9.53875 0.866214 5.05741 0.856303 2.2418 1.94979C1.95084 2.06452 1.69119 2.24718 1.48425 2.48268C1.27732 2.71818 1.12904 2.99978 1.05165 3.30425C0.838916 4.12849 0.585938 5.63492 0.585938 8.13407C0.585938 10.6332 0.838916 12.1397 1.05165 12.9639C1.12893 13.2685 1.27715 13.5503 1.48409 13.7859C1.69103 14.0216 1.95075 14.2044 2.2418 14.3192C4.93914 15.3656 9.16092 15.4019 9.73095 15.4019H9.83937C10.4094 15.4019 14.6336 15.3656 17.3285 14.3192C17.6196 14.2044 17.8793 14.0216 18.0862 13.7859C18.2932 13.5503 18.4414 13.2685 18.5187 12.9639C18.7314 12.138 18.9844 10.6332 18.9844 8.13407C18.9844 5.63492 18.7314 4.12849 18.5187 3.30425ZM17.2464 12.6368C17.2213 12.7382 17.1728 12.8321 17.1047 12.9109C17.0366 12.9897 16.9509 13.0512 16.8546 13.0903C14.255 14.0995 9.83362 14.0813 9.79091 14.0813H9.78516C9.7408 14.0813 5.32271 14.0978 2.72147 13.0903C2.62518 13.0512 2.53947 12.9897 2.47137 12.9109C2.40327 12.8321 2.35471 12.7382 2.32968 12.6368C2.13009 11.8828 1.90011 10.4936 1.90011 8.13407C1.90011 5.7745 2.13009 4.38534 2.32393 3.63543C2.3485 3.5335 2.39685 3.43892 2.46497 3.3595C2.5331 3.28008 2.61905 3.21811 2.71572 3.17871C5.22251 2.20499 9.42294 2.18764 9.76709 2.18764H9.78926C9.83362 2.18764 14.2558 2.17278 16.8529 3.17871C16.9492 3.21779 17.0349 3.27925 17.103 3.35807C17.1711 3.43688 17.2197 3.5308 17.2447 3.63213C17.4402 4.38534 17.6702 5.7745 17.6702 8.13407C17.6702 10.4936 17.4402 11.8828 17.2464 12.6327V12.6368Z" fill="white"/>
</svg>
