<svg width="19" height="20" viewBox="0 0 19 20" fill="none" xmlns="http://www.w3.org/2000/svg">
<path d="M9.78179 0.633789C8.45823 0.634807 7.15047 0.92288 5.94771 1.47836C4.74496 2.03383 3.67551 2.84364 2.81233 3.85254C1.94915 4.86144 1.31256 6.04568 0.945971 7.32447C0.579384 8.60327 0.491434 9.94653 0.68812 11.2626C0.884806 12.5787 1.3615 13.8366 2.08568 14.9506C2.80986 16.0646 3.76449 17.0084 4.88444 17.7176C6.00439 18.4269 7.26331 18.8849 8.57531 19.0604C9.8873 19.2359 11.2215 19.1247 12.4869 18.7345C12.5974 18.7004 12.6977 18.6393 12.7789 18.5566L18.4042 12.9003C18.4862 12.8181 18.547 12.717 18.5812 12.6058C19.0024 11.2217 19.0952 9.75758 18.852 8.33093C18.6088 6.90429 18.0365 5.55481 17.1809 4.39077C16.3254 3.22673 15.2104 2.28053 13.9254 1.62808C12.6404 0.975625 11.2213 0.635089 9.78179 0.633789ZM6.59617 7.04019C6.80619 7.04019 7.0115 7.10281 7.18612 7.22014C7.36074 7.33746 7.49685 7.50422 7.57722 7.69932C7.65759 7.89442 7.67862 8.10911 7.63764 8.31623C7.59667 8.52335 7.49554 8.7136 7.34703 8.86293C7.19853 9.01225 7.00932 9.11394 6.80334 9.15514C6.59735 9.19634 6.38385 9.1752 6.18981 9.09438C5.99578 9.01357 5.82994 8.87671 5.71326 8.70113C5.59658 8.52554 5.5343 8.3191 5.5343 8.10792C5.5343 7.82474 5.64618 7.55316 5.84532 7.35292C6.04446 7.15268 6.31455 7.04019 6.59617 7.04019ZM13.9337 12.3789C13.0232 13.9618 11.51 14.8702 9.78179 14.8702C8.05359 14.8702 6.54043 13.9627 5.62987 12.3789C5.57865 12.2978 5.54426 12.2072 5.52876 12.1125C5.51327 12.0178 5.51699 11.9209 5.5397 11.8276C5.56242 11.7344 5.60366 11.6467 5.66094 11.5699C5.71822 11.4931 5.79036 11.4288 5.87302 11.3807C5.95568 11.3327 6.04715 11.3019 6.14193 11.2904C6.23671 11.2788 6.33284 11.2866 6.42453 11.3133C6.51623 11.3401 6.60159 11.3852 6.6755 11.446C6.7494 11.5068 6.81031 11.582 6.85456 11.667C7.51558 12.8157 8.55444 13.4466 9.78179 13.4466C11.0091 13.4466 12.048 12.8149 12.709 11.667C12.7533 11.582 12.8142 11.5068 12.8881 11.446C12.962 11.3852 13.0474 11.3401 13.1391 11.3133C13.2307 11.2866 13.3269 11.2788 13.4217 11.2904C13.5164 11.3019 13.6079 11.3327 13.6906 11.3807C13.7732 11.4288 13.8454 11.4931 13.9026 11.5699C13.9599 11.6467 14.0012 11.7344 14.0239 11.8276C14.0466 11.9209 14.0503 12.0178 14.0348 12.1125C14.0193 12.2072 13.9849 12.2978 13.9337 12.3789ZM12.9674 9.17566C12.7574 9.17566 12.5521 9.11304 12.3775 8.99571C12.2028 8.87839 12.0667 8.71163 11.9864 8.51653C11.906 8.32143 11.885 8.10674 11.9259 7.89962C11.9669 7.6925 12.068 7.50225 12.2166 7.35292C12.3651 7.2036 12.5543 7.10191 12.7602 7.06071C12.9662 7.01951 13.1797 7.04065 13.3738 7.12147C13.5678 7.20228 13.7336 7.33914 13.8503 7.51472C13.967 7.69031 14.0293 7.89675 14.0293 8.10792C14.0293 8.39111 13.9174 8.66269 13.7183 8.86293C13.5191 9.06317 13.249 9.17566 12.9674 9.17566Z" fill="white"/>
</svg>
