<svg width="19" height="20" viewBox="0 0 19 20" fill="none" xmlns="http://www.w3.org/2000/svg">
<path d="M18.9844 9.51343V18.3938C18.9844 18.59 18.9036 18.7783 18.7598 18.917C18.6161 19.0558 18.4211 19.1338 18.2178 19.1338H12.8516C12.6482 19.1338 12.4533 19.0558 12.3095 18.917C12.1657 18.7783 12.085 18.59 12.085 18.3938V13.5836C12.085 13.4854 12.0446 13.3913 11.9727 13.3219C11.9008 13.2526 11.8033 13.2136 11.7017 13.2136H7.86865C7.76699 13.2136 7.6695 13.2526 7.59762 13.3219C7.52573 13.3913 7.48535 13.4854 7.48535 13.5836V18.3938C7.48535 18.59 7.40458 18.7783 7.26082 18.917C7.11705 19.0558 6.92207 19.1338 6.71875 19.1338H1.35254C1.14922 19.1338 0.954236 19.0558 0.81047 18.917C0.666704 18.7783 0.585938 18.59 0.585938 18.3938V9.51343C0.586126 9.12097 0.747783 8.74464 1.03536 8.46722L8.70137 1.06694C8.98888 0.78959 9.3787 0.633789 9.78516 0.633789C10.1916 0.633789 10.5814 0.78959 10.8689 1.06694L18.535 8.46722C18.8225 8.74464 18.9842 9.12097 18.9844 9.51343Z" fill="#F5F5F5"/>
</svg>
