<svg width="19" height="16" viewBox="0 0 19 16" fill="none" xmlns="http://www.w3.org/2000/svg">
<path d="M18.5187 3.30425C18.4413 2.99978 18.293 2.71818 18.0861 2.48268C17.8791 2.24718 17.6195 2.06452 17.3285 1.94979C14.5129 0.856303 10.0316 0.866214 9.78516 0.866214C9.53875 0.866214 5.05741 0.856303 2.2418 1.94979C1.95084 2.06452 1.69119 2.24718 1.48425 2.48268C1.27732 2.71818 1.12904 2.99978 1.05165 3.30425C0.838916 4.12849 0.585938 5.63492 0.585938 8.13407C0.585938 10.6332 0.838916 12.1397 1.05165 12.9639C1.12893 13.2685 1.27715 13.5503 1.48409 13.7859C1.69103 14.0216 1.95075 14.2044 2.2418 14.3192C4.93914 15.3656 9.16092 15.4019 9.73095 15.4019H9.83937C10.4094 15.4019 14.6336 15.3656 17.3285 14.3192C17.6196 14.2044 17.8793 14.0216 18.0862 13.7859C18.2932 13.5503 18.4414 13.2685 18.5187 12.9639C18.7314 12.138 18.9844 10.6332 18.9844 8.13407C18.9844 5.63492 18.7314 4.12849 18.5187 3.30425ZM12.462 8.67255L9.17653 10.9851C9.07825 11.0543 8.96299 11.0951 8.84326 11.1032C8.72353 11.1112 8.6039 11.0861 8.49735 11.0306C8.39079 10.9751 8.30138 10.8914 8.23882 10.7884C8.17625 10.6854 8.14292 10.5672 8.14244 10.4466V5.82157C8.14247 5.7007 8.17548 5.58216 8.23786 5.47885C8.30025 5.37553 8.38962 5.2914 8.49626 5.23562C8.6029 5.17984 8.72271 5.15453 8.84265 5.16247C8.9626 5.1704 9.07808 5.21126 9.17653 5.28061L12.462 7.59311C12.5484 7.65405 12.6189 7.73503 12.6676 7.82919C12.7164 7.92336 12.7418 8.02793 12.7418 8.13407C12.7418 8.24021 12.7164 8.34479 12.6676 8.43895C12.6189 8.53311 12.5484 8.61409 12.462 8.67503V8.67255Z" fill="white"/>
</svg>
