<svg width="19" height="20" viewBox="0 0 19 20" fill="none" xmlns="http://www.w3.org/2000/svg">
<path d="M18.5349 8.5599L10.8689 0.851577C10.5814 0.562677 10.1916 0.400391 9.78516 0.400391C9.3787 0.400391 8.98888 0.562677 8.70138 0.851577L1.03537 8.5599C0.892304 8.70269 0.778899 8.87264 0.701746 9.05989C0.624592 9.24714 0.58523 9.44795 0.585947 9.65063V18.9006C0.585947 19.1051 0.666714 19.3011 0.810479 19.4457C0.954245 19.5902 1.14923 19.6715 1.35255 19.6715H7.48535C7.68867 19.6715 7.88366 19.5902 8.02742 19.4457C8.17119 19.3011 8.25196 19.1051 8.25196 18.9006V13.5048H11.3184V18.9006C11.3184 19.1051 11.3991 19.3011 11.5429 19.4457C11.6867 19.5902 11.8816 19.6715 12.085 19.6715H18.2178C18.4211 19.6715 18.6161 19.5902 18.7598 19.4457C18.9036 19.3011 18.9844 19.1051 18.9844 18.9006V9.65063C18.9851 9.44795 18.9457 9.24714 18.8686 9.05989C18.7914 8.87264 18.678 8.70269 18.5349 8.5599ZM17.4512 18.1298H12.8516V12.734C12.8516 12.5295 12.7708 12.3335 12.627 12.1889C12.4833 12.0443 12.2883 11.9631 12.085 11.9631H7.48535C7.28204 11.9631 7.08705 12.0443 6.94329 12.1889C6.79952 12.3335 6.71875 12.5295 6.71875 12.734V18.1298H2.11915V9.65063L9.78516 1.9423L17.4512 9.65063V18.1298Z" fill="white"/>
</svg>
