<svg width="21" height="18" viewBox="0 0 21 18" fill="none" xmlns="http://www.w3.org/2000/svg">
<path d="M19.5568 16.4213H18.2484V7.21242C18.2484 6.86351 18.1106 6.5289 17.8652 6.28218C17.6199 6.03547 17.2871 5.89687 16.9401 5.89687H11.7068V1.9502C11.7069 1.71197 11.6427 1.47817 11.5211 1.27376C11.3994 1.06934 11.2248 0.901983 11.016 0.789543C10.8071 0.677103 10.5718 0.623802 10.3351 0.635331C10.0985 0.646859 9.86939 0.722783 9.67231 0.855L3.13065 5.23909C2.95119 5.35948 2.80413 5.52262 2.70255 5.71399C2.60097 5.90536 2.54803 6.11901 2.54844 6.33593V16.4213H1.2401C1.06661 16.4213 0.900218 16.4906 0.777538 16.614C0.654858 16.7373 0.585938 16.9046 0.585938 17.0791C0.585938 17.2535 0.654858 17.4209 0.777538 17.5442C0.900218 17.6676 1.06661 17.7369 1.2401 17.7369H19.5568C19.7303 17.7369 19.8967 17.6676 20.0193 17.5442C20.142 17.4209 20.2109 17.2535 20.2109 17.0791C20.2109 16.9046 20.142 16.7373 20.0193 16.614C19.8967 16.4906 19.7303 16.4213 19.5568 16.4213ZM16.9401 7.21242V16.4213H11.7068V7.21242H16.9401ZM3.85677 6.33593L10.3984 1.9502V16.4213H3.85677V6.33593ZM9.0901 8.52798V9.84353C9.0901 10.018 9.02118 10.1853 8.8985 10.3087C8.77582 10.432 8.60943 10.5013 8.43594 10.5013C8.26244 10.5013 8.09605 10.432 7.97337 10.3087C7.85069 10.1853 7.78177 10.018 7.78177 9.84353V8.52798C7.78177 8.35352 7.85069 8.18622 7.97337 8.06286C8.09605 7.9395 8.26244 7.8702 8.43594 7.8702C8.60943 7.8702 8.77582 7.9395 8.8985 8.06286C9.02118 8.18622 9.0901 8.35352 9.0901 8.52798ZM6.47344 8.52798V9.84353C6.47344 10.018 6.40452 10.1853 6.28184 10.3087C6.15916 10.432 5.99277 10.5013 5.81927 10.5013C5.64577 10.5013 5.47938 10.432 5.35671 10.3087C5.23403 10.1853 5.1651 10.018 5.1651 9.84353V8.52798C5.1651 8.35352 5.23403 8.18622 5.35671 8.06286C5.47938 7.9395 5.64577 7.8702 5.81927 7.8702C5.99277 7.8702 6.15916 7.9395 6.28184 8.06286C6.40452 8.18622 6.47344 8.35352 6.47344 8.52798ZM6.47344 13.1324V14.448C6.47344 14.6224 6.40452 14.7897 6.28184 14.9131C6.15916 15.0365 5.99277 15.1058 5.81927 15.1058C5.64577 15.1058 5.47938 15.0365 5.35671 14.9131C5.23403 14.7897 5.1651 14.6224 5.1651 14.448V13.1324C5.1651 12.958 5.23403 12.7907 5.35671 12.6673C5.47938 12.5439 5.64577 12.4746 5.81927 12.4746C5.99277 12.4746 6.15916 12.5439 6.28184 12.6673C6.40452 12.7907 6.47344 12.958 6.47344 13.1324ZM9.0901 13.1324V14.448C9.0901 14.6224 9.02118 14.7897 8.8985 14.9131C8.77582 15.0365 8.60943 15.1058 8.43594 15.1058C8.26244 15.1058 8.09605 15.0365 7.97337 14.9131C7.85069 14.7897 7.78177 14.6224 7.78177 14.448V13.1324C7.78177 12.958 7.85069 12.7907 7.97337 12.6673C8.09605 12.5439 8.26244 12.4746 8.43594 12.4746C8.60943 12.4746 8.77582 12.5439 8.8985 12.6673C9.02118 12.7907 9.0901 12.958 9.0901 13.1324Z" fill="white"/>
</svg>
