<svg width="19" height="20" viewBox="0 0 19 20" fill="none" xmlns="http://www.w3.org/2000/svg">
<path d="M13.9354 12.3711C13.0252 13.9534 11.5127 14.8615 9.78516 14.8615C8.05765 14.8615 6.54508 13.9543 5.63401 12.3711C5.58754 12.2902 5.55739 12.2008 5.54527 12.1082C5.53315 12.0155 5.5393 11.9213 5.56336 11.8311C5.58743 11.7408 5.62894 11.6562 5.68553 11.582C5.74212 11.5079 5.81268 11.4457 5.89318 11.399C5.97368 11.3523 6.06254 11.3219 6.15469 11.3097C6.24684 11.2976 6.34048 11.3037 6.43026 11.3279C6.52003 11.3521 6.60419 11.3939 6.67792 11.4508C6.75165 11.5077 6.81352 11.5786 6.85998 11.6596C7.51985 12.8078 8.5583 13.4384 9.78516 13.4384C11.012 13.4384 12.0505 12.8069 12.7112 11.6596C12.7555 11.5745 12.8163 11.4994 12.8902 11.4386C12.9641 11.3779 13.0494 11.3328 13.1411 11.306C13.2327 11.2793 13.3288 11.2715 13.4236 11.283C13.5183 11.2946 13.6097 11.3253 13.6924 11.3734C13.775 11.4214 13.8471 11.4857 13.9044 11.5625C13.9616 11.6393 14.0028 11.7269 14.0255 11.8201C14.0483 11.9133 14.052 12.0102 14.0365 12.1049C14.021 12.1996 13.9866 12.2901 13.9354 12.3711ZM18.9844 9.88073C18.9848 10.8019 18.8489 11.7179 18.581 12.5988C18.5469 12.71 18.4861 12.8111 18.4041 12.8932L12.7811 18.5473C12.6999 18.6299 12.5996 18.691 12.4892 18.7252C10.6384 19.2975 8.65518 19.2679 6.82204 18.6408C4.9889 18.0136 3.39931 16.8209 2.27968 15.2323C1.16005 13.6438 0.567482 11.7405 0.586376 9.79353C0.605269 7.84659 1.23466 5.95529 2.38491 4.38902C3.53515 2.82274 5.14759 1.66136 6.99255 1.0703C8.83752 0.479244 10.8209 0.488644 12.6603 1.09717C14.4996 1.70569 16.1011 2.8823 17.2366 4.45941C18.3721 6.03652 18.9837 7.9337 18.9844 9.88073ZM17.5691 9.88073C17.5671 8.24331 17.0538 6.64786 16.1016 5.31953C15.1494 3.99121 13.8064 2.99707 12.2621 2.47741C10.7179 1.95775 9.05034 1.93881 7.49481 2.42326C5.93928 2.90771 4.57431 3.87108 3.59251 5.17744C2.61072 6.4838 2.06168 8.06718 2.02288 9.70414C1.98407 11.3411 2.45745 12.949 3.37622 14.3009C4.29499 15.6528 5.61276 16.6805 7.14357 17.2389C8.67437 17.7974 10.3409 17.8583 11.9081 17.4133L17.2763 12.0153C17.4713 11.3208 17.5698 10.6024 17.5691 9.88073ZM6.60081 9.16919C6.81075 9.16919 7.01597 9.1066 7.19052 8.98932C7.36507 8.87204 7.50112 8.70535 7.58146 8.51032C7.6618 8.3153 7.68282 8.1007 7.64186 7.89366C7.60091 7.68662 7.49981 7.49645 7.35137 7.34718C7.20292 7.19792 7.01379 7.09627 6.80789 7.05508C6.60199 7.0139 6.38857 7.03504 6.19461 7.11582C6.00066 7.1966 5.83488 7.3334 5.71825 7.50892C5.60161 7.68444 5.53936 7.89079 5.53936 8.10188C5.53936 8.38495 5.65119 8.65643 5.85025 8.85658C6.04931 9.05674 6.3193 9.16919 6.60081 9.16919ZM12.9695 7.03458C12.7596 7.03458 12.5543 7.09717 12.3798 7.21445C12.2052 7.33173 12.0692 7.49842 11.9889 7.69344C11.9085 7.88847 11.8875 8.10307 11.9284 8.31011C11.9694 8.51714 12.0705 8.70732 12.2189 8.85658C12.3674 9.00585 12.5565 9.1075 12.7624 9.14868C12.9683 9.18987 13.1817 9.16873 13.3757 9.08795C13.5697 9.00716 13.7354 8.87037 13.8521 8.69485C13.9687 8.51933 14.0309 8.31298 14.0309 8.10188C14.0309 7.81882 13.9191 7.54734 13.7201 7.34718C13.521 7.14702 13.251 7.03458 12.9695 7.03458Z" fill="white"/>
</svg>
