<svg width="21" height="18" viewBox="0 0 21 18" fill="none" xmlns="http://www.w3.org/2000/svg">
<path d="M19.5334 16.6483H18.2473V7.44071C18.2473 7.09186 18.1095 6.75729 17.8641 6.51061C17.6188 6.26393 17.2861 6.12535 16.9391 6.12535H13.3418C13.255 6.12535 13.1718 6.15999 13.1105 6.22166C13.0492 6.28333 13.0147 6.36698 13.0147 6.45419V16.6483H11.7066V2.21297C11.7087 2.00808 11.6645 1.80539 11.5773 1.62023C11.49 1.43507 11.362 1.2723 11.2029 1.14423C10.9861 0.974254 10.7215 0.877287 10.4468 0.867104C10.1721 0.856921 9.9011 0.93404 9.67242 1.08751L3.13171 5.46767C2.95228 5.58804 2.80524 5.75116 2.70368 5.9425C2.60211 6.13384 2.54918 6.34746 2.54959 6.56435V16.6483H1.26352C1.0945 16.6457 0.930799 16.7077 0.805355 16.8216C0.679911 16.9356 0.602029 17.093 0.587375 17.2624C0.581434 17.3523 0.593953 17.4426 0.624152 17.5274C0.654352 17.6123 0.701588 17.6901 0.762927 17.7558C0.824265 17.8216 0.898396 17.874 0.980714 17.9097C1.06303 17.9455 1.15178 17.9638 1.24145 17.9636H19.5554C19.6451 17.9638 19.7338 17.9455 19.8162 17.9097C19.8985 17.874 19.9726 17.8216 20.0339 17.7558C20.0953 17.6901 20.1425 17.6123 20.1727 17.5274C20.2029 17.4426 20.2154 17.3523 20.2095 17.2624C20.1948 17.093 20.117 16.9356 19.9915 16.8216C19.8661 16.7077 19.7024 16.6457 19.5334 16.6483ZM6.14698 14.6752C6.14717 14.7654 6.12893 14.8546 6.09339 14.9374C6.05784 15.0202 6.00575 15.0947 5.94035 15.1564C5.87494 15.218 5.79763 15.2655 5.7132 15.2959C5.62878 15.3263 5.53904 15.3389 5.44957 15.3329C5.28103 15.3181 5.1243 15.2397 5.01097 15.1134C4.89764 14.9871 4.83613 14.8223 4.83884 14.6522V13.382C4.83653 13.2121 4.8982 13.0476 5.01147 12.9215C5.12474 12.7955 5.28124 12.7171 5.44957 12.7022C5.53904 12.6962 5.62878 12.7088 5.7132 12.7391C5.79763 12.7695 5.87494 12.817 5.94035 12.8787C6.00575 12.9404 6.05784 13.0149 6.09339 13.0977C6.12893 13.1804 6.14717 13.2697 6.14698 13.3598V14.6752ZM6.14698 10.0714C6.14717 10.1616 6.12893 10.2508 6.09339 10.3336C6.05784 10.4164 6.00575 10.4909 5.94035 10.5526C5.87494 10.6143 5.79763 10.6618 5.7132 10.6921C5.62878 10.7225 5.53904 10.7351 5.44957 10.7291C5.2811 10.7142 5.12448 10.6357 5.01119 10.5094C4.8979 10.3832 4.83632 10.2185 4.83884 10.0484V8.77827C4.83653 8.60837 4.8982 8.44387 5.01147 8.31778C5.12474 8.19168 5.28124 8.11332 5.44957 8.09839C5.53904 8.09242 5.62878 8.10501 5.7132 8.13537C5.79763 8.16574 5.87494 8.21324 5.94035 8.27491C6.00575 8.33659 6.05784 8.41113 6.09339 8.4939C6.12893 8.57668 6.14717 8.66591 6.14698 8.75607V10.0714ZM9.41733 14.6752C9.41753 14.7654 9.39929 14.8546 9.36374 14.9374C9.3282 15.0202 9.2761 15.0947 9.2107 15.1564C9.1453 15.218 9.06798 15.2655 8.98356 15.2959C8.89913 15.3263 8.8094 15.3389 8.71993 15.3329C8.55167 15.3182 8.39517 15.24 8.28189 15.114C8.1686 14.988 8.1069 14.8236 8.10919 14.6538V13.382C8.10709 13.2123 8.16886 13.048 8.28211 12.9221C8.39536 12.7961 8.55174 12.7179 8.71993 12.703C8.8094 12.697 8.89913 12.7096 8.98356 12.74C9.06798 12.7703 9.1453 12.8178 9.2107 12.8795C9.2761 12.9412 9.3282 13.0157 9.36374 13.0985C9.39929 13.1813 9.41753 13.2705 9.41733 13.3607V14.6752ZM9.41733 10.0714C9.41753 10.1616 9.39929 10.2508 9.36374 10.3336C9.3282 10.4164 9.2761 10.4909 9.2107 10.5526C9.1453 10.6143 9.06798 10.6618 8.98356 10.6921C8.89913 10.7225 8.8094 10.7351 8.71993 10.7291C8.55174 10.7142 8.39536 10.636 8.28211 10.51C8.16886 10.3841 8.10709 10.2198 8.10919 10.0501V8.77827C8.10709 8.60851 8.16886 8.44422 8.28211 8.3183C8.39536 8.19238 8.55174 8.11413 8.71993 8.09922C8.8094 8.09324 8.89913 8.10583 8.98356 8.1362C9.06798 8.16656 9.1453 8.21406 9.2107 8.27574C9.2761 8.33741 9.3282 8.41195 9.36374 8.49473C9.39929 8.5775 9.41753 8.66674 9.41733 8.7569V10.0714Z" fill="white"/>
</svg>
