<svg width="19" height="22" viewBox="0 0 19 22" fill="none" xmlns="http://www.w3.org/2000/svg">
<path d="M18.9844 20.4421C18.9844 20.6465 18.9036 20.8426 18.7598 20.9871C18.6161 21.1317 18.4211 21.2129 18.2178 21.2129H1.35254C1.14922 21.2129 0.954236 21.1317 0.81047 20.9871C0.666704 20.8426 0.585938 20.6465 0.585938 20.4421C0.585938 20.2376 0.666704 20.0416 0.81047 19.897C0.954236 19.7524 1.14922 19.6712 1.35254 19.6712H18.2178C18.4211 19.6712 18.6161 19.7524 18.7598 19.897C18.9036 20.0416 18.9844 20.2376 18.9844 20.4421ZM17.4512 11.1921H12.0438L13.5492 4.13026C13.645 3.68076 13.6397 3.21539 13.5336 2.76822C13.4275 2.32105 13.2233 1.90339 12.936 1.54582C12.6486 1.18825 12.2854 0.89981 11.8729 0.701623C11.4603 0.503436 11.009 0.400514 10.5518 0.400391H9.01855C8.56136 0.400514 8.10997 0.503436 7.69744 0.701623C7.28491 0.89981 6.92168 1.18825 6.63432 1.54582C6.34697 1.90339 6.14277 2.32105 6.03668 2.76822C5.93058 3.21539 5.92527 3.68076 6.02114 4.13026L7.52656 11.1921H2.11914C1.71251 11.1921 1.32253 11.3545 1.035 11.6436C0.747471 11.9327 0.585938 12.3248 0.585938 12.7337V16.5879C0.585938 16.9968 0.747471 17.3889 1.035 17.678C1.32253 17.9671 1.71251 18.1296 2.11914 18.1296H17.4512C17.8578 18.1296 18.2478 17.9671 18.5353 17.678C18.8228 17.3889 18.9844 16.9968 18.9844 16.5879V12.7337C18.9844 12.3248 18.8228 11.9327 18.5353 11.6436C18.2478 11.3545 17.8578 11.1921 17.4512 11.1921Z" fill="white"/>
</svg>
