<svg width="19" height="23" viewBox="0 0 19 23" fill="none" xmlns="http://www.w3.org/2000/svg">
<path d="M18.7398 4.6175L14.5583 0.412958C14.4806 0.334893 14.3883 0.27299 14.2868 0.230787C14.1853 0.188583 14.0765 0.166906 13.9666 0.166992H5.60369C5.1601 0.166992 4.73467 0.344183 4.421 0.659585C4.10733 0.974988 3.93111 1.40276 3.93111 1.84881V3.53063H2.25852C1.81493 3.53063 1.3895 3.70782 1.07583 4.02322C0.762156 4.33862 0.585938 4.7664 0.585938 5.21245V20.3488C0.585938 20.7949 0.762156 21.2226 1.07583 21.538C1.3895 21.8534 1.81493 22.0306 2.25852 22.0306H13.9666C14.4102 22.0306 14.8356 21.8534 15.1493 21.538C15.463 21.2226 15.6392 20.7949 15.6392 20.3488V18.667H17.3118C17.7554 18.667 18.1808 18.4898 18.4945 18.1744C18.8082 17.859 18.9844 17.4312 18.9844 16.9852V5.21245C18.9845 5.10198 18.9629 4.99259 18.9209 4.8905C18.879 4.78842 18.8174 4.69566 18.7398 4.6175ZM13.9666 20.3488H2.25852V5.21245H10.2754L13.9666 8.92401V17.8093C13.9666 17.8156 13.9666 17.8208 13.9666 17.8261C13.9666 17.8313 13.9666 17.8366 13.9666 17.8429V20.3488ZM17.3118 16.9852H15.6392V8.57608C15.6393 8.46562 15.6177 8.35622 15.5758 8.25414C15.5338 8.15206 15.4722 8.05929 15.3946 7.98114L11.2131 3.77659C11.1354 3.69853 11.0431 3.63663 10.9416 3.59442C10.8401 3.55222 10.7313 3.53054 10.6214 3.53063H5.60369V1.84881H13.6206L17.3118 5.56037V16.9852ZM11.4577 13.6215C11.4577 13.8446 11.3696 14.0584 11.2128 14.2161C11.056 14.3739 10.8432 14.4624 10.6214 14.4624H5.60369C5.38189 14.4624 5.16918 14.3739 5.01235 14.2161C4.85551 14.0584 4.7674 13.8446 4.7674 13.6215C4.7674 13.3985 4.85551 13.1846 5.01235 13.0269C5.16918 12.8692 5.38189 12.7806 5.60369 12.7806H10.6214C10.8432 12.7806 11.056 12.8692 11.2128 13.0269C11.3696 13.1846 11.4577 13.3985 11.4577 13.6215ZM11.4577 16.9852C11.4577 17.2082 11.3696 17.4221 11.2128 17.5798C11.056 17.7375 10.8432 17.8261 10.6214 17.8261H5.60369C5.38189 17.8261 5.16918 17.7375 5.01235 17.5798C4.85551 17.4221 4.7674 17.2082 4.7674 16.9852C4.7674 16.7621 4.85551 16.5483 5.01235 16.3906C5.16918 16.2329 5.38189 16.1443 5.60369 16.1443H10.6214C10.8432 16.1443 11.056 16.2329 11.2128 16.3906C11.3696 16.5483 11.4577 16.7621 11.4577 16.9852Z" fill="white"/>
</svg>
