<svg width="19" height="22" viewBox="0 0 19 22" fill="none" xmlns="http://www.w3.org/2000/svg">
<path d="M18.9844 20.6755C18.9844 20.8799 18.9036 21.076 18.7598 21.2205C18.6161 21.3651 18.4211 21.4463 18.2178 21.4463H1.35254C1.14922 21.4463 0.954236 21.3651 0.81047 21.2205C0.666704 21.076 0.585938 20.8799 0.585938 20.6755C0.585938 20.471 0.666704 20.275 0.81047 20.1304C0.954236 19.9858 1.14922 19.9046 1.35254 19.9046H18.2178C18.4211 19.9046 18.6161 19.9858 18.7598 20.1304C18.9036 20.275 18.9844 20.471 18.9844 20.6755ZM18.9844 12.9671V16.8213C18.9844 17.2302 18.8228 17.6223 18.5353 17.9114C18.2478 18.2005 17.8578 18.363 17.4512 18.363H2.11914C1.71251 18.363 1.32253 18.2005 1.035 17.9114C0.747471 17.6223 0.585938 17.2302 0.585938 16.8213V12.9671C0.585938 12.5582 0.747471 12.1661 1.035 11.877C1.32253 11.5879 1.71251 11.4255 2.11914 11.4255H7.52656L6.02114 4.36366C5.92527 3.91416 5.93058 3.44879 6.03668 3.00162C6.14277 2.55445 6.34697 2.13679 6.63432 1.77922C6.92168 1.42164 7.28491 1.13321 7.69744 0.935021C8.10997 0.736834 8.56136 0.633912 9.01855 0.633789H10.5518C11.009 0.633769 11.4605 0.736585 11.8732 0.93471C12.2858 1.13283 12.6492 1.42125 12.9366 1.77884C13.2241 2.13643 13.4284 2.55414 13.5345 3.00138C13.6407 3.44863 13.646 3.91408 13.5501 4.36366L12.0438 11.4255H17.4512C17.8578 11.4255 18.2478 11.5879 18.5353 11.877C18.8228 12.1661 18.9844 12.5582 18.9844 12.9671ZM9.09426 11.4255H10.4761L12.0505 4.03991C12.0983 3.81519 12.0956 3.58256 12.0425 3.35904C11.9894 3.13551 11.8873 2.92675 11.7436 2.74802C11.6 2.56929 11.4184 2.42512 11.2122 2.32605C11.0059 2.22699 10.7803 2.17553 10.5518 2.17546H9.01855C8.78993 2.17539 8.56418 2.22674 8.35783 2.32574C8.15149 2.42474 7.96978 2.5689 7.82601 2.74764C7.68223 2.92639 7.58003 3.13521 7.5269 3.3588C7.47376 3.5824 7.47102 3.81511 7.51889 4.03991L9.09426 11.4255ZM17.4512 16.8213V12.9671H2.11914V16.8213H17.4512Z" fill="white"/>
</svg>
