<svg width="19" height="23" viewBox="0 0 19 23" fill="none" xmlns="http://www.w3.org/2000/svg">
<path d="M18.7398 4.8509L14.5583 0.646357C14.4806 0.568292 14.3883 0.506389 14.2868 0.464185C14.1853 0.421982 14.0765 0.400304 13.9666 0.400391H5.60369C5.1601 0.400391 4.73467 0.577582 4.421 0.892984C4.10733 1.20839 3.93111 1.63616 3.93111 2.08221V3.76403H2.25852C1.81493 3.76403 1.3895 3.94122 1.07583 4.25662C0.762156 4.57202 0.585938 4.9998 0.585938 5.44585V20.5822C0.585938 21.0283 0.762156 21.456 1.07583 21.7714C1.3895 22.0868 1.81493 22.264 2.25852 22.264H13.9666C14.4102 22.264 14.8356 22.0868 15.1493 21.7714C15.463 21.456 15.6392 21.0283 15.6392 20.5822V18.9004H17.3118C17.7554 18.9004 18.1808 18.7232 18.4945 18.4078C18.8082 18.0924 18.9844 17.6646 18.9844 17.2186V5.44585C18.9845 5.33538 18.9629 5.22599 18.9209 5.1239C18.879 5.02182 18.8174 4.92905 18.7398 4.8509ZM10.6214 18.0595H5.60369C5.38189 18.0595 5.16918 17.9709 5.01235 17.8132C4.85551 17.6555 4.7674 17.4416 4.7674 17.2186C4.7674 16.9955 4.85551 16.7817 5.01235 16.624C5.16918 16.4663 5.38189 16.3777 5.60369 16.3777H10.6214C10.8432 16.3777 11.056 16.4663 11.2128 16.624C11.3696 16.7817 11.4577 16.9955 11.4577 17.2186C11.4577 17.4416 11.3696 17.6555 11.2128 17.8132C11.056 17.9709 10.8432 18.0595 10.6214 18.0595ZM10.6214 14.6958H5.60369C5.38189 14.6958 5.16918 14.6072 5.01235 14.4495C4.85551 14.2918 4.7674 14.078 4.7674 13.8549C4.7674 13.6319 4.85551 13.418 5.01235 13.2603C5.16918 13.1026 5.38189 13.014 5.60369 13.014H10.6214C10.8432 13.014 11.056 13.1026 11.2128 13.2603C11.3696 13.418 11.4577 13.6319 11.4577 13.8549C11.4577 14.078 11.3696 14.2918 11.2128 14.4495C11.056 14.6072 10.8432 14.6958 10.6214 14.6958ZM17.3118 17.2186H15.6392V8.80948C15.6393 8.69902 15.6177 8.58962 15.5758 8.48754C15.5338 8.38546 15.4722 8.29269 15.3946 8.21454L11.2131 4.00999C11.1354 3.93193 11.0431 3.87002 10.9416 3.82782C10.8401 3.78562 10.7313 3.76394 10.6214 3.76403H5.60369V2.08221H13.6206L17.3118 5.79377V17.2186Z" fill="white"/>
</svg>
